<svg width="16" height="12" viewBox="0 0 16 12" fill="none" xmlns="http://www.w3.org/2000/svg">
<path d="M1.05433 7.71692L3.83166 10.4943C4.20672 10.8692 4.71533 11.0798 5.24566 11.0798C5.77599 11.0798 6.28461 10.8692 6.65966 10.4943L15.237 1.91692C15.3584 1.79118 15.4256 1.62278 15.4241 1.44798C15.4226 1.27319 15.3525 1.10598 15.2289 0.982371C15.1053 0.858766 14.9381 0.788654 14.7633 0.787135C14.5885 0.785616 14.4201 0.852812 14.2943 0.974251L5.717 9.55159C5.59198 9.67657 5.42244 9.74678 5.24566 9.74678C5.06889 9.74678 4.89935 9.67657 4.77433 9.55159L1.997 6.77425C1.87126 6.65281 1.70286 6.58562 1.52806 6.58714C1.35326 6.58865 1.18606 6.65877 1.06245 6.78237C0.938844 6.90598 0.868732 7.07319 0.867213 7.24798C0.865694 7.42278 0.93289 7.59118 1.05433 7.71692Z" fill="#0D75F3"/>
</svg>
