<svg width="7" height="12" viewBox="0 0 7 12" fill="none" xmlns="http://www.w3.org/2000/svg">
<path d="M5.83244 4.23432L2.00744 0.409319C1.8513 0.25411 1.64009 0.166992 1.41994 0.166992C1.19978 0.166992 0.988571 0.25411 0.832436 0.409319C0.754329 0.486788 0.692334 0.578956 0.650027 0.680505C0.60772 0.782055 0.585938 0.890976 0.585938 1.00099C0.585938 1.111 0.60772 1.21992 0.650027 1.32147C0.692334 1.42302 0.754329 1.51518 0.832436 1.59265L4.66577 5.40932C4.74388 5.48679 4.80587 5.57896 4.84818 5.68051C4.89049 5.78206 4.91227 5.89098 4.91227 6.00099C4.91227 6.111 4.89049 6.21992 4.84818 6.32147C4.80587 6.42302 4.74388 6.51518 4.66577 6.59265L0.832436 10.4093C0.675516 10.5651 0.586921 10.7769 0.586139 10.998C0.585358 11.2192 0.672455 11.4316 0.82827 11.5885C0.984085 11.7454 1.19585 11.834 1.41699 11.8348C1.63813 11.8356 1.85052 11.7485 2.00744 11.5927L5.83244 7.76765C6.3006 7.2989 6.56357 6.66349 6.56357 6.00099C6.56357 5.33848 6.3006 4.70307 5.83244 4.23432V4.23432Z" fill="#0D75F3"/>
</svg>
