<svg width="7" height="12" viewBox="0 0 7 12" fill="none" xmlns="http://www.w3.org/2000/svg">
<path d="M2.83191 6.59265C2.75381 6.51518 2.69181 6.42302 2.6495 6.32147C2.6072 6.21992 2.58542 6.111 2.58542 6.00099C2.58542 5.89098 2.6072 5.78205 2.6495 5.68051C2.69181 5.57896 2.75381 5.48679 2.83191 5.40932L6.65691 1.59265C6.73502 1.51518 6.79702 1.42302 6.83932 1.32147C6.88163 1.21992 6.90341 1.111 6.90341 1.00099C6.90341 0.890976 6.88163 0.782055 6.83932 0.680505C6.79702 0.578956 6.73502 0.486788 6.65691 0.409319C6.50078 0.25411 6.28957 0.166992 6.06941 0.166992C5.84926 0.166992 5.63805 0.25411 5.48191 0.409319L1.65691 4.23432C1.18875 4.70307 0.925781 5.33848 0.925781 6.00099C0.925781 6.66349 1.18875 7.2989 1.65691 7.76765L5.48191 11.5927C5.63713 11.7466 5.84663 11.8334 6.06525 11.8343C6.17492 11.835 6.28364 11.8139 6.38517 11.7725C6.4867 11.731 6.57905 11.6699 6.65691 11.5927C6.73502 11.5152 6.79702 11.423 6.83932 11.3215C6.88163 11.2199 6.90341 11.111 6.90341 11.001C6.90341 10.891 6.88163 10.7821 6.83932 10.6805C6.79702 10.579 6.73502 10.4868 6.65691 10.4093L2.83191 6.59265Z" fill="#0D75F3"/>
</svg>
