<svg width="12" height="11" viewBox="0 0 12 11" fill="none" xmlns="http://www.w3.org/2000/svg">
<path d="M11.9987 5.34486C11.9946 4.90644 11.818 4.48728 11.507 4.1782L7.93203 0.594866C7.7759 0.439657 7.56469 0.352539 7.34453 0.352539C7.12438 0.352539 6.91317 0.439657 6.75703 0.594866C6.67892 0.672335 6.61693 0.764503 6.57462 0.866052C6.53231 0.967601 6.51053 1.07652 6.51053 1.18653C6.51053 1.29654 6.53231 1.40546 6.57462 1.50701C6.61693 1.60856 6.67892 1.70073 6.75703 1.7782L9.4987 4.51153H1.16536C0.944351 4.51153 0.732389 4.59933 0.576109 4.75561C0.419829 4.91189 0.332031 5.12385 0.332031 5.34486C0.332031 5.56587 0.419829 5.77784 0.576109 5.93412C0.732389 6.0904 0.944351 6.17819 1.16536 6.17819H9.4987L6.75703 8.91986C6.60011 9.07567 6.51152 9.28744 6.51073 9.50858C6.50995 9.72971 6.59705 9.9421 6.75286 10.099C6.90868 10.2559 7.12045 10.3445 7.34158 10.3453C7.56272 10.3461 7.77511 10.259 7.93203 10.1032L11.507 6.51986C11.82 6.20873 11.9968 5.78617 11.9987 5.34486V5.34486Z" fill="#2C2C2C"/>
</svg>
