<svg width="180" height="39" viewBox="0 0 180 39" fill="none" xmlns="http://www.w3.org/2000/svg">
<g clip-path="url(#clip0_206_4123)">
<path d="M3.72266 3.5687V34.4566L168.841 38.723V0.271648L3.72266 3.5687Z" fill="#C61414"/>
<path d="M169.108 39H168.837L3.45703 34.7176V3.3077L169.108 0V39ZM3.98967 34.1956L168.576 38.4514V0.543294L3.98967 3.82969V34.1956Z" fill="black"/>
<path d="M1.73047 26.0089V22.2111H5.48026V24.4589L5.69332 24.6719H5.97562L6.18868 24.4589V22.3283L1.78373 18.9993V13.7262L3.84505 11.6648H7.82921L9.89053 13.7262V17.2416H6.14074V15.2495L5.95431 15.0631H5.71995L5.53353 15.2495V17.1244L9.93847 20.4534V26.0089L7.87715 28.0702H3.79712L1.7358 26.0089H1.73047Z" fill="black" stroke="black" stroke-width="0.5" stroke-miterlimit="10"/>
<path d="M10.3809 11.6648H16.5222L18.5835 13.7262V20.6185L16.5222 22.6799H14.1307V28.0702H10.3809V11.6648ZM14.1307 15.0631V19.2816H14.5994L14.8337 19.0473V15.2975L14.5994 15.0631H14.1307Z" fill="black" stroke="black" stroke-width="0.5" stroke-miterlimit="10"/>
<path d="M27.1109 13.7262V26.0089L25.0496 28.0702H20.9695L18.9082 26.0089V13.7262L20.9695 11.6648H25.0496L27.1109 13.7262ZM23.1267 15.0631H22.8924L22.658 15.2975V24.4376L22.8924 24.6719H23.1267L23.3611 24.4376V15.2975L23.1267 15.0631Z" fill="black" stroke="black" stroke-width="0.5" stroke-miterlimit="10"/>
<path d="M27.6484 11.6648H33.7898L35.8511 13.7262V20.1498L35.0095 20.9914L36.1814 28.0702H32.4316L31.6805 22.2111H31.3982V28.0702H27.6484V11.6648ZM31.3982 15.0631V19.0473H31.867L32.1013 18.8129V15.2975L31.867 15.0631H31.3982Z" fill="black" stroke="black" stroke-width="0.5" stroke-miterlimit="10"/>
<path d="M37.4921 15.0631H36.0859V11.6648H42.6481V15.0631H41.2419V28.0702H37.4921V15.0631Z" fill="black" stroke="black" stroke-width="0.5" stroke-miterlimit="10"/>
<path d="M42.8129 11.6648H46.7491L47.0527 22.4455V23.8517H47.3563V22.4455L47.6599 11.6648H52.5815L52.8851 22.4455V23.8517H53.1887V22.4455L53.4923 11.6648H57.2421L55.7401 28.0702H50.5362L50.1846 18.5519V15.4093H49.8544V18.5519L49.5028 28.0702H44.2989L42.7969 11.6648H42.8129Z" fill="black" stroke="black" stroke-width="0.5" stroke-miterlimit="10"/>
<path d="M57.5566 11.6648H63.4157V15.0631H61.3064V18.1098H63.1813V21.3909H61.3064V24.6719H63.4157V28.0702H57.5566V11.6648Z" fill="black" stroke="black" stroke-width="0.5" stroke-miterlimit="10"/>
<path d="M65.1738 15.0631H63.7676V11.6648H70.3297V15.0631H68.9235V28.0702H65.1738V15.0631Z" fill="black" stroke="black" stroke-width="0.5" stroke-miterlimit="10"/>
<path d="M72.039 15.0631H70.6328V11.6648H77.195V15.0631H75.7888V28.0702H72.039V15.0631Z" fill="black" stroke="black" stroke-width="0.5" stroke-miterlimit="10"/>
<path d="M77.5938 11.6648H83.4528V15.0631H81.3435V18.1098H83.2185V21.3909H81.3435V24.6719H83.4528V28.0702H77.5938V11.6648Z" fill="black" stroke="black" stroke-width="0.5" stroke-miterlimit="10"/>
<path d="M83.8965 11.6648H87.8593L88.7488 16.6823L89.0525 19.2603H89.404L89.1004 16.6823V11.6648H92.8502V28.0702H88.8873L87.9978 23.0527L87.6942 20.4747H87.3427L87.6463 23.0527V28.0702H83.8965V11.6648Z" fill="black" stroke="black" stroke-width="0.5" stroke-miterlimit="10"/>
<path d="M93.291 26.0089V22.2111H97.0408V24.4589L97.2539 24.6719H97.5362L97.7492 24.4589V22.3283L93.3443 18.9993V13.7262L95.4056 11.6648H99.3898L101.451 13.7262V17.2416H97.7013V15.2495L97.5149 15.0631H97.2805L97.0941 15.2495V17.1244L101.499 20.4534V26.0089L99.4377 28.0702H95.3577L93.2963 26.0089H93.291Z" fill="black" stroke="black" stroke-width="0.5" stroke-miterlimit="10"/>
<path d="M103.934 28.0702L101.873 26.0089V13.7262L103.934 11.6648H108.014L110.076 13.7262V18.8129H106.326V15.2975L106.092 15.0631H105.857L105.623 15.2975V24.4376L105.857 24.6719H106.092L106.326 24.4376V20.6878H110.076V26.0089L108.014 28.0702H103.934Z" fill="black" stroke="black" stroke-width="0.5" stroke-miterlimit="10"/>
<path d="M110.613 11.6648H114.363V18.1098H115.066V11.6648H118.816V28.0702H115.066V21.3909H114.363V28.0702H110.613V11.6648Z" fill="black" stroke="black" stroke-width="0.5" stroke-miterlimit="10"/>
<path d="M119.119 11.6648H123.056L123.359 22.4455V23.8517H123.663V22.4455L123.967 11.6648H128.888L129.192 22.4455V23.8517H129.495V22.4455L129.799 11.6648H133.549L132.047 28.0702H126.843L126.491 18.5519V15.4093H126.161V18.5519L125.809 28.0702H120.606L119.104 11.6648H119.119Z" fill="black" stroke="black" stroke-width="0.5" stroke-miterlimit="10"/>
<path d="M133.863 11.6648H139.722V15.0631H137.613V18.1098H139.488V21.3909H137.613V24.6719H139.722V28.0702H133.863V11.6648Z" fill="black" stroke="black" stroke-width="0.5" stroke-miterlimit="10"/>
<path d="M140.164 11.6648H143.914V28.0702H140.164V11.6648Z" fill="black" stroke="black" stroke-width="0.5" stroke-miterlimit="10"/>
<path d="M144.312 25.1886L147.034 15.0631H144.435V11.6648H150.997V14.5464L148.281 24.6719H151.072V28.0702H144.323V25.1886H144.312Z" fill="black" stroke="black" stroke-width="0.5" stroke-miterlimit="10"/>
<path d="M0.132812 24.9436V21.1459H3.88261V23.3936L4.09566 23.6067H4.37796L4.59102 23.3936V21.263L0.18075 17.934V12.6609L2.24207 10.5996H6.22623L8.28755 12.6609V16.1763H4.53776V14.1842L4.35133 13.9978H4.11697L3.93055 14.1842V16.0591L8.33549 19.3881V24.9436L6.27417 27.0049H2.19413L0.132812 24.9436Z" fill="white" stroke="black" stroke-width="0.5" stroke-miterlimit="10"/>
<path d="M8.7832 10.5996H14.9246L16.9859 12.6609V19.5533L14.9246 21.6146H12.533V27.0049H8.7832V10.5996ZM12.533 13.9978V18.2163H13.0017L13.2361 17.982V14.2322L13.0017 13.9978H12.533Z" fill="white" stroke="black" stroke-width="0.5" stroke-miterlimit="10"/>
<path d="M25.5132 12.6609V24.9436L23.4519 27.0049H19.3719L17.3105 24.9436V12.6609L19.3719 10.5996H23.4519L25.5132 12.6609ZM21.5291 13.9978H21.2947L21.0603 14.2322V23.3723L21.2947 23.6067H21.5291L21.7634 23.3723V14.2322L21.5291 13.9978Z" fill="white" stroke="black" stroke-width="0.5" stroke-miterlimit="10"/>
<path d="M26.0508 10.5996H32.1921L34.2535 12.6609V19.0845L33.4119 19.9261L34.5837 27.0049H30.8339L30.0829 21.1459H29.8006V27.0049H26.0508V10.5996ZM29.8006 13.9978V17.982H30.2693L30.5037 17.7476V14.2322L30.2693 13.9978H29.8006Z" fill="white" stroke="black" stroke-width="0.5" stroke-miterlimit="10"/>
<path d="M35.8945 13.9978H34.4883V10.5996H41.0504V13.9978H39.6442V27.0049H35.8945V13.9978Z" fill="white" stroke="black" stroke-width="0.5" stroke-miterlimit="10"/>
<path d="M41.2152 10.5996H45.1514L45.455 21.3802V22.7864H45.7586V21.3802L46.0622 10.5996H50.9838L51.2874 21.3802V22.7864H51.5911V21.3802L51.8947 10.5996H55.6445L54.1424 27.0049H48.9385L48.587 17.4866V14.344H48.2567V17.4866L47.9052 27.0049H42.7013L41.1992 10.5996H41.2152Z" fill="white" stroke="black" stroke-width="0.5" stroke-miterlimit="10"/>
<path d="M55.959 10.5996H61.818V13.9978H59.7088V17.0445H61.5837V20.3256H59.7088V23.6067H61.818V27.0049H55.959V10.5996Z" fill="white" stroke="black" stroke-width="0.5" stroke-miterlimit="10"/>
<path d="M63.5761 13.9978H62.1699V10.5996H68.7321V13.9978H67.3259V27.0049H63.5761V13.9978Z" fill="white" stroke="black" stroke-width="0.5" stroke-miterlimit="10"/>
<path d="M70.4413 13.9978H69.0352V10.5996H75.5973V13.9978H74.1911V27.0049H70.4413V13.9978Z" fill="white" stroke="black" stroke-width="0.5" stroke-miterlimit="10"/>
<path d="M75.9961 10.5996H81.8551V13.9978H79.7459V17.0445H81.6208V20.3256H79.7459V23.6067H81.8551V27.0049H75.9961V10.5996Z" fill="white" stroke="black" stroke-width="0.5" stroke-miterlimit="10"/>
<path d="M82.2988 10.5996H86.2617L87.1512 15.617L87.4548 18.195H87.8063L87.5027 15.617V10.5996H91.2525V27.0049H87.2897L86.4002 21.9874L86.0966 19.4095H85.745L86.0486 21.9874V27.0049H82.2988V10.5996Z" fill="white" stroke="black" stroke-width="0.5" stroke-miterlimit="10"/>
<path d="M91.6934 24.9436V21.1459H95.4432V23.3936L95.6562 23.6067H95.9385L96.1516 23.3936V21.263L91.7466 17.934V12.6609L93.8079 10.5996H97.7921L99.8534 12.6609V16.1763H96.1036V14.1842L95.9172 13.9978H95.6828L95.4964 14.1842V16.0591L99.9014 19.3881V24.9436L97.84 27.0049H93.76L91.6987 24.9436H91.6934Z" fill="white" stroke="black" stroke-width="0.5" stroke-miterlimit="10"/>
<path d="M102.337 27.0049L100.275 24.9436V12.6609L102.337 10.5996H106.417L108.478 12.6609V17.7476H104.728V14.2322L104.494 13.9978H104.26L104.025 14.2322V23.3723L104.26 23.6067H104.494L104.728 23.3723V19.6225H108.478V24.9436L106.417 27.0049H102.337Z" fill="white" stroke="black" stroke-width="0.5" stroke-miterlimit="10"/>
<path d="M109.016 10.5996H112.765V17.0445H113.469V10.5996H117.218V27.0049H113.469V20.3256H112.765V27.0049H109.016V10.5996Z" fill="white" stroke="black" stroke-width="0.5" stroke-miterlimit="10"/>
<path d="M117.522 10.5996H121.458L121.762 21.3802V22.7864H122.065V21.3802L122.369 10.5996H127.29L127.594 21.3802V22.7864H127.898V21.3802L128.201 10.5996H131.951L130.449 27.0049H125.245L124.894 17.4866V14.344H124.563V17.4866L124.212 27.0049H119.008L117.506 10.5996H117.522Z" fill="white" stroke="black" stroke-width="0.5" stroke-miterlimit="10"/>
<path d="M132.266 10.5996H138.125V13.9978H136.015V17.0445H137.89V20.3256H136.015V23.6067H138.125V27.0049H132.266V10.5996Z" fill="white" stroke="black" stroke-width="0.5" stroke-miterlimit="10"/>
<path d="M138.566 10.5996H142.316V27.0049H138.566V10.5996Z" fill="white" stroke="black" stroke-width="0.5" stroke-miterlimit="10"/>
<path d="M142.715 24.1233L145.437 13.9978H142.837V10.5996H149.399V13.4812L146.683 23.6067H149.474V27.0049H142.725V24.1233H142.715Z" fill="white" stroke="black" stroke-width="0.5" stroke-miterlimit="10"/>
<path d="M157.156 29.6734L156.373 24.2245L153.161 29.5722L147.137 29.4178L154.503 19.1644L152.277 9.64613L157.822 9.78995L158.375 14.9086L161.252 9.88049L167.303 10.0403L160.277 19.8249L162.674 29.8226L157.156 29.6788V29.6734Z" fill="black" stroke="black" stroke-width="0.5" stroke-miterlimit="10"/>
<path d="M155.558 28.6082L154.775 23.1592L151.563 28.507L145.539 28.3525L152.906 18.0992L150.679 8.58085L156.224 8.72466L156.778 13.8433L159.654 8.81521L165.705 8.97501L158.679 18.7596L161.076 28.7573L155.558 28.6135V28.6082Z" fill="white" stroke="black" stroke-width="0.5" stroke-miterlimit="10"/>
<path d="M168.661 31.7987L167.606 25.5934L164.096 31.7987H157.209L165.321 19.8675L162.493 9.06023H168.831L169.614 14.8873L172.751 9.06023H179.67L171.931 20.4481L174.967 31.7987H168.661Z" fill="black" stroke="black" stroke-width="0.5" stroke-miterlimit="10"/>
<path d="M167.063 30.7334L166.008 24.5281L162.498 30.7334H155.611L163.723 18.8022L160.895 7.99495H167.234L168.017 13.822L171.154 7.99495H178.073L170.334 19.3775L173.37 30.7281H167.063V30.7334Z" fill="white" stroke="black" stroke-width="0.5" stroke-miterlimit="10"/>
</g>
<defs>
<clipPath id="clip0_206_4123">
<rect width="179.921" height="39" fill="white"/>
</clipPath>
</defs>
</svg>
