<svg width="177" height="20" viewBox="0 0 177 20" fill="none" xmlns="http://www.w3.org/2000/svg">
<g filter="url(#filter0_d_242_409)">
<path d="M8.14381 12.5763C8.14381 14.9748 6.46064 17.1133 3.84864 17.1133C2.23731 17.1133 0.795327 16.4713 0.0820312 15.5267L1.85757 13.0698C2.31429 13.7331 3.11995 14.1683 3.84864 14.1683C4.3772 14.1683 4.76207 13.7703 4.76207 13.2237C4.76207 12.7674 4.30536 12.3747 3.73575 11.9024C2.87877 11.1648 1.7806 10.2574 1.7806 8.57526C1.7806 6.11838 3.62798 4.07539 6.11169 4.07539C7.33815 4.07539 8.67237 4.54767 9.47803 5.45507L7.81539 7.93318C7.3946 7.36539 6.75314 7.02578 6.07577 7.02578C5.49076 7.02578 5.21879 7.46091 5.21879 7.89604C5.21879 8.40546 5.69603 8.82466 6.26051 9.31286C7.10209 10.0292 8.14381 10.9366 8.14381 12.5816V12.5763ZM18.2377 7.81113C18.2377 10.3423 16.6264 12.6878 13.3011 12.6878H12.48L11.582 16.8852H8.34395L11.0329 4.27704H14.8149C16.8984 4.27704 18.2326 5.84775 18.2326 7.81113H18.2377ZM14.8919 8.16667C14.8919 7.56173 14.5635 7.18497 14.0708 7.18497H13.65L13.101 9.77452H13.5782C14.3993 9.77452 14.897 8.96263 14.897 8.16667H14.8919ZM27.526 8.5275C27.526 11.6477 25.9352 17.1133 21.876 17.1133C19.2589 17.1133 18.0376 15.1871 18.0376 12.6718C18.0376 9.57287 19.6079 4.07009 23.6875 4.07009C26.2841 4.07009 27.526 6.03347 27.526 8.53281V8.5275ZM24.2315 8.46913C24.2315 7.63602 24.0313 7.01517 23.4976 7.01517C22.1429 7.01517 21.3013 11.1542 21.3013 12.7461C21.3013 13.5792 21.486 14.163 22.0146 14.163C23.3693 14.163 24.2263 10.0398 24.2263 8.46913H24.2315ZM36.8296 7.84828C36.8296 9.81166 35.6237 11.5893 34.6333 12.0616L35.1105 16.8852H31.7442L31.5799 12.6878H31.0873L30.1893 16.8852H26.9512L29.6402 4.27704H33.4632C35.403 4.27704 36.8296 5.84775 36.8296 7.84828ZM33.4838 8.18789C33.4838 7.47152 33.0989 7.18497 32.6627 7.18497H32.2624L31.7134 9.77452H32.1906C32.9604 9.77452 33.4889 9.03692 33.4889 8.18789H33.4838ZM38.3486 4.27173L37.7276 7.18497H39.5032L37.4351 16.8852H40.6732L42.7412 7.18497H44.4962L45.1172 4.27173H38.3537H38.3486ZM54.5645 4.27173L52.3887 11.1171L52.8659 4.27173H50.4181L48.0063 11.1171L48.735 4.27173H45.5174L45.0607 16.8799H48.2629L50.4027 10.337L49.7459 16.8799H52.9634L57.8795 4.27173H54.5696H54.5645ZM64.2222 7.18497L64.8431 4.27173H58.7006L56.0116 16.8799H62.1542L62.7751 13.9666H59.8706L60.2914 11.9449H63.0881L63.709 9.03162H60.9277L61.3126 7.17967H64.2222V7.18497ZM65.6847 4.27173L65.0638 7.18497H66.8393L64.7713 16.8852H68.0093L70.0774 7.18497H71.8324L72.4533 4.27173H65.6898H65.6847ZM79.8736 4.27173H73.1102L72.4892 7.18497H74.2648L72.1967 16.8852H75.4348L77.5028 7.18497H79.2579L79.8788 4.27173H79.8736ZM85.3388 11.9502L85.9598 9.03692H83.1784L83.5633 7.18497H86.4678L87.0887 4.27173H80.9462L78.2572 16.8799H84.3997L85.0207 13.9666H82.111L82.5318 11.9449H85.3286L85.3388 11.9502ZM93.3493 4.27173L92.3076 9.20673L91.5943 4.27173H88.3562L85.6673 16.8799H88.9053L90.0189 11.6212L90.8759 16.8799H93.8727L96.5617 4.27173H93.3442H93.3493ZM101.303 9.30225C100.739 8.80875 100.262 8.39484 100.262 7.88542C100.262 7.45029 100.534 7.01517 101.119 7.01517C101.796 7.01517 102.432 7.35478 102.853 7.92257L104.516 5.44446C103.71 4.53706 102.376 4.06478 101.149 4.06478C98.6605 4.06478 96.8183 6.10776 96.8183 8.56465C96.8183 10.2468 97.9164 11.1542 98.7734 11.8918C99.3379 12.3641 99.7946 12.762 99.7946 13.2131C99.7946 13.7597 99.4098 14.1576 98.8812 14.1576C98.1474 14.1576 97.3468 13.7225 96.8901 13.0592L95.1146 15.5161C95.8279 16.4606 97.2699 17.1027 98.8812 17.1027C101.498 17.1027 103.176 14.9642 103.176 12.5657C103.176 10.9207 102.135 10.0133 101.293 9.29694L101.303 9.30225ZM107.995 14.163C107.559 14.163 107.282 13.749 107.282 12.7461C107.282 11.1224 108.123 7.01517 109.478 7.01517C110.099 7.01517 110.212 7.95971 110.227 8.96263L113.209 8.3577C113.188 6.38901 112.388 4.06478 109.663 4.06478C105.532 4.06478 104.013 9.62063 104.013 12.6665C104.013 15.3304 105.311 17.108 107.851 17.108C109.827 17.108 111.069 15.8239 111.926 13.7437L109.329 12.6825C108.929 13.6482 108.472 14.1576 107.995 14.1576V14.163ZM118.761 8.94141H116.986L117.991 4.27173H114.753L112.064 16.8799H115.302L116.365 11.8493H118.12L117.057 16.8799H120.275L122.964 4.27173H119.746L118.761 8.94141ZM132.858 4.27173L130.682 11.1171L131.159 4.27173H128.706L126.294 11.1171L127.028 4.27173H123.811L123.354 16.8799H126.556L128.696 10.337L128.039 16.8799H131.257L136.173 4.27173H132.863H132.858ZM141.381 11.9502L142.002 9.03692H139.221L139.606 7.18497H142.51L143.131 4.27173H136.989L134.3 16.8799H140.442L141.063 13.9666H138.154L138.574 11.9449H141.371L141.381 11.9502ZM144.394 4.27173L141.705 16.8799H144.943L147.632 4.27173H144.394ZM169.487 9.75329L171.981 19.4057H166.793L165.926 14.1311L163.037 19.4057H157.371L159.029 16.8852H157.797L157.12 12.7567L154.862 16.8852H146.174L146.759 14.1046L150.875 7.18497H148.242L148.863 4.27173H154.472L153.836 1.75117H157.915L158.418 5.63018L160.435 1.75117H162.149L161.723 0.0637207H166.937L167.583 5.01994L170.165 0.0637207H175.856L169.492 9.74799L169.487 9.75329ZM155.647 8.94671L154.924 6.09715L154.744 6.94618L150.541 13.9772H152.342L155.647 8.94671ZM164.048 9.25449L162.908 4.75462L159.901 9.32347L161.056 13.7968L164.043 9.25449H164.048Z" fill="url(#paint0_linear_242_409)"/>
<path d="M8.14381 12.5763C8.14381 14.9748 6.46064 17.1133 3.84864 17.1133C2.23731 17.1133 0.795327 16.4713 0.0820312 15.5267L1.85757 13.0698C2.31429 13.7331 3.11995 14.1683 3.84864 14.1683C4.3772 14.1683 4.76207 13.7703 4.76207 13.2237C4.76207 12.7674 4.30536 12.3747 3.73575 11.9024C2.87877 11.1648 1.7806 10.2574 1.7806 8.57526C1.7806 6.11838 3.62798 4.07539 6.11169 4.07539C7.33815 4.07539 8.67237 4.54767 9.47803 5.45507L7.81539 7.93318C7.3946 7.36539 6.75314 7.02578 6.07577 7.02578C5.49076 7.02578 5.21879 7.46091 5.21879 7.89604C5.21879 8.40546 5.69603 8.82466 6.26051 9.31286C7.10209 10.0292 8.14381 10.9366 8.14381 12.5816V12.5763ZM18.2377 7.81113C18.2377 10.3423 16.6264 12.6878 13.3011 12.6878H12.48L11.582 16.8852H8.34395L11.0329 4.27704H14.8149C16.8984 4.27704 18.2326 5.84775 18.2326 7.81113H18.2377ZM14.8919 8.16667C14.8919 7.56173 14.5635 7.18497 14.0708 7.18497H13.65L13.101 9.77452H13.5782C14.3993 9.77452 14.897 8.96263 14.897 8.16667H14.8919ZM27.526 8.5275C27.526 11.6477 25.9352 17.1133 21.876 17.1133C19.2589 17.1133 18.0376 15.1871 18.0376 12.6718C18.0376 9.57287 19.6079 4.07009 23.6875 4.07009C26.2841 4.07009 27.526 6.03347 27.526 8.53281V8.5275ZM24.2315 8.46913C24.2315 7.63602 24.0313 7.01517 23.4976 7.01517C22.1429 7.01517 21.3013 11.1542 21.3013 12.7461C21.3013 13.5792 21.486 14.163 22.0146 14.163C23.3693 14.163 24.2263 10.0398 24.2263 8.46913H24.2315ZM36.8296 7.84828C36.8296 9.81166 35.6237 11.5893 34.6333 12.0616L35.1105 16.8852H31.7442L31.5799 12.6878H31.0873L30.1893 16.8852H26.9512L29.6402 4.27704H33.4632C35.403 4.27704 36.8296 5.84775 36.8296 7.84828ZM33.4838 8.18789C33.4838 7.47152 33.0989 7.18497 32.6627 7.18497H32.2624L31.7134 9.77452H32.1906C32.9604 9.77452 33.4889 9.03692 33.4889 8.18789H33.4838ZM38.3486 4.27173L37.7276 7.18497H39.5032L37.4351 16.8852H40.6732L42.7412 7.18497H44.4962L45.1172 4.27173H38.3537H38.3486ZM54.5645 4.27173L52.3887 11.1171L52.8659 4.27173H50.4181L48.0063 11.1171L48.735 4.27173H45.5174L45.0607 16.8799H48.2629L50.4027 10.337L49.7459 16.8799H52.9634L57.8795 4.27173H54.5696H54.5645ZM64.2222 7.18497L64.8431 4.27173H58.7006L56.0116 16.8799H62.1542L62.7751 13.9666H59.8706L60.2914 11.9449H63.0881L63.709 9.03162H60.9277L61.3126 7.17967H64.2222V7.18497ZM65.6847 4.27173L65.0638 7.18497H66.8393L64.7713 16.8852H68.0093L70.0774 7.18497H71.8324L72.4533 4.27173H65.6898H65.6847ZM79.8736 4.27173H73.1102L72.4892 7.18497H74.2648L72.1967 16.8852H75.4348L77.5028 7.18497H79.2579L79.8788 4.27173H79.8736ZM85.3388 11.9502L85.9598 9.03692H83.1784L83.5633 7.18497H86.4678L87.0887 4.27173H80.9462L78.2572 16.8799H84.3997L85.0207 13.9666H82.111L82.5318 11.9449H85.3286L85.3388 11.9502ZM93.3493 4.27173L92.3076 9.20673L91.5943 4.27173H88.3562L85.6673 16.8799H88.9053L90.0189 11.6212L90.8759 16.8799H93.8727L96.5617 4.27173H93.3442H93.3493ZM101.303 9.30225C100.739 8.80875 100.262 8.39484 100.262 7.88542C100.262 7.45029 100.534 7.01517 101.119 7.01517C101.796 7.01517 102.432 7.35478 102.853 7.92257L104.516 5.44446C103.71 4.53706 102.376 4.06478 101.149 4.06478C98.6605 4.06478 96.8183 6.10776 96.8183 8.56465C96.8183 10.2468 97.9164 11.1542 98.7734 11.8918C99.3379 12.3641 99.7946 12.762 99.7946 13.2131C99.7946 13.7597 99.4098 14.1576 98.8812 14.1576C98.1474 14.1576 97.3468 13.7225 96.8901 13.0592L95.1146 15.5161C95.8279 16.4606 97.2699 17.1027 98.8812 17.1027C101.498 17.1027 103.176 14.9642 103.176 12.5657C103.176 10.9207 102.135 10.0133 101.293 9.29694L101.303 9.30225ZM107.995 14.163C107.559 14.163 107.282 13.749 107.282 12.7461C107.282 11.1224 108.123 7.01517 109.478 7.01517C110.099 7.01517 110.212 7.95971 110.227 8.96263L113.209 8.3577C113.188 6.38901 112.388 4.06478 109.663 4.06478C105.532 4.06478 104.013 9.62063 104.013 12.6665C104.013 15.3304 105.311 17.108 107.851 17.108C109.827 17.108 111.069 15.8239 111.926 13.7437L109.329 12.6825C108.929 13.6482 108.472 14.1576 107.995 14.1576V14.163ZM118.761 8.94141H116.986L117.991 4.27173H114.753L112.064 16.8799H115.302L116.365 11.8493H118.12L117.057 16.8799H120.275L122.964 4.27173H119.746L118.761 8.94141ZM132.858 4.27173L130.682 11.1171L131.159 4.27173H128.706L126.294 11.1171L127.028 4.27173H123.811L123.354 16.8799H126.556L128.696 10.337L128.039 16.8799H131.257L136.173 4.27173H132.863H132.858ZM141.381 11.9502L142.002 9.03692H139.221L139.606 7.18497H142.51L143.131 4.27173H136.989L134.3 16.8799H140.442L141.063 13.9666H138.154L138.574 11.9449H141.371L141.381 11.9502ZM144.394 4.27173L141.705 16.8799H144.943L147.632 4.27173H144.394ZM169.487 9.75329L171.981 19.4057H166.793L165.926 14.1311L163.037 19.4057H157.371L159.029 16.8852H157.797L157.12 12.7567L154.862 16.8852H146.174L146.759 14.1046L150.875 7.18497H148.242L148.863 4.27173H154.472L153.836 1.75117H157.915L158.418 5.63018L160.435 1.75117H162.149L161.723 0.0637207H166.937L167.583 5.01994L170.165 0.0637207H175.856L169.492 9.74799L169.487 9.75329ZM155.647 8.94671L154.924 6.09715L154.744 6.94618L150.541 13.9772H152.342L155.647 8.94671ZM164.048 9.25449L162.908 4.75462L159.901 9.32347L161.056 13.7968L164.043 9.25449H164.048Z" stroke="black" stroke-width="0.25" stroke-miterlimit="10"/>
</g>
<defs>
<filter id="filter0_d_242_409" x="-0.0742188" y="-0.0612793" width="178.162" height="20.592" filterUnits="userSpaceOnUse" color-interpolation-filters="sRGB">
<feFlood flood-opacity="0" result="BackgroundImageFix"/>
<feColorMatrix in="SourceAlpha" type="matrix" values="0 0 0 0 0 0 0 0 0 0 0 0 0 0 0 0 0 0 127 0" result="hardAlpha"/>
<feOffset dx="2" dy="1"/>
<feColorMatrix type="matrix" values="0 0 0 0 0 0 0 0 0 0 0 0 0 0 0 0 0 0 1 0"/>
<feBlend mode="normal" in2="BackgroundImageFix" result="effect1_dropShadow_242_409"/>
<feBlend mode="normal" in="SourceGraphic" in2="effect1_dropShadow_242_409" result="shape"/>
</filter>
<linearGradient id="paint0_linear_242_409" x1="0.0820312" y1="9.73737" x2="175.85" y2="9.73737" gradientUnits="userSpaceOnUse">
<stop stop-color="#0099E6"/>
<stop offset="1" stop-color="#E8FF96"/>
</linearGradient>
</defs>
</svg>
