<svg width="78" height="14" viewBox="0 0 78 14" fill="none" xmlns="http://www.w3.org/2000/svg">
<path d="M6.84757 11.0378C6.94162 10.9823 7.05838 10.9823 7.15243 11.0378L10.7178 13.1412C10.9458 13.2757 11.2235 13.0706 11.1621 12.8132L10.2208 8.8694C10.1946 8.75937 10.2324 8.64392 10.3188 8.57081L13.4472 5.92175C13.6512 5.74903 13.5445 5.41591 13.2782 5.39383L9.14599 5.05116C9.03579 5.04202 8.93954 4.97299 8.89555 4.87153L7.27524 1.13476C7.17079 0.893888 6.82921 0.893887 6.72476 1.13476L5.10445 4.87153C5.06046 4.97299 4.96421 5.04202 4.85401 5.05116L0.721838 5.39383C0.455474 5.41591 0.348792 5.74903 0.552768 5.92175L3.68124 8.57081C3.76757 8.64392 3.80544 8.75937 3.77918 8.8694L2.83792 12.8132C2.77648 13.0706 3.05421 13.2757 3.28216 13.1412L6.84757 11.0378Z" fill="#EDB92E"/>
<path d="M22.8476 11.0378C22.9416 10.9823 23.0584 10.9823 23.1524 11.0378L26.7178 13.1412C26.9458 13.2757 27.2235 13.0706 27.1621 12.8132L26.2208 8.8694C26.1946 8.75937 26.2324 8.64392 26.3188 8.57081L29.4472 5.92175C29.6512 5.74903 29.5445 5.41591 29.2782 5.39383L25.146 5.05116C25.0358 5.04202 24.9395 4.97299 24.8955 4.87153L23.2752 1.13476C23.1708 0.893888 22.8292 0.893887 22.7248 1.13476L21.1045 4.87153C21.0605 4.97299 20.9642 5.04202 20.854 5.05116L16.7218 5.39383C16.4555 5.41591 16.3488 5.74903 16.5528 5.92175L19.6812 8.57081C19.7676 8.64392 19.8054 8.75937 19.7792 8.8694L18.8379 12.8132C18.7765 13.0706 19.0542 13.2757 19.2822 13.1412L22.8476 11.0378Z" fill="#EDB92E"/>
<path d="M38.8476 11.0378C38.9416 10.9823 39.0584 10.9823 39.1524 11.0378L42.7178 13.1412C42.9458 13.2757 43.2235 13.0706 43.1621 12.8132L42.2208 8.8694C42.1946 8.75937 42.2324 8.64392 42.3188 8.57081L45.4472 5.92175C45.6512 5.74903 45.5445 5.41591 45.2782 5.39383L41.146 5.05116C41.0358 5.04202 40.9395 4.97299 40.8955 4.87153L39.2752 1.13476C39.1708 0.893888 38.8292 0.893887 38.7248 1.13476L37.1045 4.87153C37.0605 4.97299 36.9642 5.04202 36.854 5.05116L32.7218 5.39383C32.4555 5.41591 32.3488 5.74903 32.5528 5.92175L35.6812 8.57081C35.7676 8.64392 35.8054 8.75937 35.7792 8.8694L34.8379 12.8132C34.7765 13.0706 35.0542 13.2757 35.2822 13.1412L38.8476 11.0378Z" fill="#EDB92E"/>
<path d="M54.8391 11.3538C54.9373 11.2914 55.0627 11.2914 55.1609 11.3538L58.7158 13.6123C58.9412 13.7556 59.2274 13.555 59.1696 13.2942L58.2156 8.98956C58.1923 8.88468 58.2269 8.77536 58.3063 8.70298L61.4958 5.79452C61.6887 5.6186 61.5804 5.29726 61.3203 5.27404L57.15 4.9016C57.0377 4.89158 56.9405 4.81943 56.8984 4.71484L55.2783 0.691162C55.1774 0.440562 54.8226 0.440562 54.7217 0.691161L53.1016 4.71484C53.0595 4.81943 52.9623 4.89158 52.85 4.9016L48.6797 5.27404C48.4196 5.29726 48.3113 5.6186 48.5042 5.79452L51.6937 8.70298C51.7731 8.77536 51.8077 8.88467 51.7844 8.98956L50.8304 13.2942C50.7726 13.555 51.0588 13.7556 51.2842 13.6123L54.8391 11.3538Z" fill="#EDB92E"/>
<path d="M70.8391 11.3538C70.9373 11.2914 71.0627 11.2914 71.1609 11.3538L74.7158 13.6123C74.9412 13.7556 75.2274 13.555 75.1696 13.2942L74.2156 8.98956C74.1923 8.88467 74.2269 8.77536 74.3063 8.70298L77.4958 5.79452C77.6887 5.6186 77.5804 5.29726 77.3203 5.27404L73.15 4.9016C73.0377 4.89158 72.9405 4.81943 72.8984 4.71484L71.2783 0.691162C71.1774 0.440562 70.8226 0.440562 70.7217 0.691161L69.1016 4.71484C69.0595 4.81943 68.9623 4.89158 68.85 4.9016L64.6797 5.27404C64.4196 5.29726 64.3113 5.6186 64.5042 5.79452L67.6937 8.70298C67.7731 8.77536 67.8077 8.88467 67.7844 8.98956L66.8304 13.2942C66.7726 13.555 67.0588 13.7556 67.2842 13.6123L70.8391 11.3538Z" fill="#EDB92E"/>
</svg>
