
<svg style="width:0; height:0; visibility: hidden;" xmlns="http://www.w3.org/2000/svg">

  <symbol id="svg-search"  viewBox="0 0 18 17">
    <g>
      <path d="M6.5 12.7396C4.68333 12.7396 3.146 12.1569 1.888 10.9915C0.63 9.82606 0.000667196 8.40265 5.29101e-07 6.72122C-0.000666138 5.03979 0.628667 3.61637 1.888 2.45098C3.14733 1.28558 4.68467 0.702881 6.5 0.702881C8.31533 0.702881 9.853 1.28558 11.113 2.45098C12.373 3.61637 13.002 5.03979 13 6.72122C13 7.40021 12.8833 8.04062 12.65 8.64246C12.4167 9.24429 12.1 9.77668 11.7 10.2396L17.3 15.4247C17.4833 15.5944 17.575 15.8105 17.575 16.0728C17.575 16.3351 17.4833 16.5512 17.3 16.7209C17.1167 16.8907 16.8833 16.9755 16.6 16.9755C16.3167 16.9755 16.0833 16.8907 15.9 16.7209L10.3 11.5359C9.8 11.9062 9.225 12.1994 8.575 12.4155C7.925 12.6315 7.23333 12.7396 6.5 12.7396ZM6.5 10.8878C7.75 10.8878 8.81267 10.4828 9.688 9.67298C10.5633 8.86313 11.0007 7.87921 11 6.72122C10.9993 5.56323 10.562 4.57962 9.688 3.77038C8.814 2.96115 7.75133 2.55591 6.5 2.55468C5.24867 2.55344 4.18633 2.95868 3.313 3.77038C2.43967 4.58209 2.002 5.5657 2 6.72122C1.998 7.87674 2.43567 8.86066 3.313 9.67298C4.19033 10.4853 5.25267 10.8902 6.5 10.8878Z" fill="currentColor" />
    </g>
  </symbol>
</svg>